<svg version="1.1" id="Layer_1" xmlns="http://www.w3.org/2000/svg" xmlns:xlink="http://www.w3.org/1999/xlink" x="0px" y="0px"
	 width="100%" viewBox="0 0 267 247" enable-background="new 0 0 267 247" xml:space="preserve">
<path fill="#F6F6F6" opacity="1.000000" stroke="none" 
	d="
M177.000000,248.000000 
	C118.000000,248.000000 59.500000,248.000000 1.000000,248.000000 
	C1.000000,165.666672 1.000000,83.333336 1.000000,1.000000 
	C90.000000,1.000000 179.000000,1.000000 268.000000,1.000000 
	C268.000000,83.333336 268.000000,165.666672 268.000000,248.000000 
	C237.833328,248.000000 207.666672,248.000000 177.000000,248.000000 
M90.798225,89.351860 
	C87.390106,93.779961 86.637154,98.766640 86.660042,104.307922 
	C86.830688,145.635620 86.752754,186.964325 86.752754,228.292725 
	C86.752754,230.070831 86.752747,231.848938 86.752747,233.999313 
	C88.659332,233.999313 90.124374,233.999313 91.589424,233.999313 
	C127.418472,233.999283 163.247528,234.011047 199.076569,233.994522 
	C218.665833,233.985474 232.359604,223.779373 237.864609,205.110092 
	C243.832214,184.871994 249.788788,164.630615 255.720474,144.381973 
	C261.157104,125.823128 250.203156,111.270134 230.785660,111.254082 
	C207.288483,111.234657 183.791275,111.254044 160.294083,111.239746 
	C158.592880,111.238708 156.891769,111.100212 154.662537,111.002472 
	C168.497559,87.363464 172.993225,62.350517 172.038742,36.037094 
	C171.488312,20.862480 161.078339,8.179072 146.253860,5.315464 
	C132.613144,2.680519 124.043762,9.651402 124.070465,23.364916 
	C124.077599,27.031097 124.173195,30.698816 124.097694,34.363140 
	C123.825768,47.559471 118.867599,58.834629 108.852692,67.303192 
	C101.585114,73.448639 95.815353,80.550537 90.798225,89.351860 
M75.999138,143.500000 
	C75.999138,132.890701 75.999138,122.281418 75.999138,111.249641 
	C60.744274,111.249641 45.965031,111.237625 31.185827,111.254837 
	C24.068415,111.263130 22.759775,112.570419 22.757879,119.688210 
	C22.747992,156.823471 22.752810,193.958740 22.754658,231.094009 
	C22.754707,232.092926 22.377352,233.407623 22.867647,234.031525 
	C24.335028,235.898834 26.112085,238.933624 27.828667,238.974472 
	C43.750546,239.353455 59.685135,239.198456 75.999138,239.198456 
	C75.999138,207.373764 75.999138,175.936890 75.999138,143.500000 
z"/>
<path fill="#010101" opacity="1.000000" stroke="none" 
	d="
M90.953720,89.015182 
	C95.815353,80.550537 101.585114,73.448639 108.852692,67.303192 
	C118.867599,58.834629 123.825768,47.559471 124.097694,34.363140 
	C124.173195,30.698816 124.077599,27.031097 124.070465,23.364916 
	C124.043762,9.651402 132.613144,2.680519 146.253860,5.315464 
	C161.078339,8.179072 171.488312,20.862480 172.038742,36.037094 
	C172.993225,62.350517 168.497559,87.363464 154.662537,111.002472 
	C156.891769,111.100212 158.592880,111.238708 160.294083,111.239746 
	C183.791275,111.254044 207.288483,111.234657 230.785660,111.254082 
	C250.203156,111.270134 261.157104,125.823128 255.720474,144.381973 
	C249.788788,164.630615 243.832214,184.871994 237.864609,205.110092 
	C232.359604,223.779373 218.665833,233.985474 199.076569,233.994522 
	C163.247528,234.011047 127.418472,233.999283 91.589424,233.999313 
	C90.124374,233.999313 88.659332,233.999313 86.752747,233.999313 
	C86.752747,231.848938 86.752754,230.070831 86.752754,228.292725 
	C86.752754,186.964325 86.830688,145.635620 86.660042,104.307922 
	C86.637154,98.766640 87.390106,93.779961 90.953720,89.015182 
z"/>
<path fill="#010101" opacity="1.000000" stroke="none" 
	d="
M75.999138,144.000000 
	C75.999138,175.936890 75.999138,207.373764 75.999138,239.198456 
	C59.685135,239.198456 43.750546,239.353455 27.828667,238.974472 
	C26.112085,238.933624 24.335028,235.898834 22.867647,234.031525 
	C22.377352,233.407623 22.754707,232.092926 22.754658,231.094009 
	C22.752810,193.958740 22.747992,156.823471 22.757879,119.688210 
	C22.759775,112.570419 24.068415,111.263130 31.185827,111.254837 
	C45.965031,111.237625 60.744274,111.249641 75.999138,111.249641 
	C75.999138,122.281418 75.999138,132.890701 75.999138,144.000000 
z"/>
</svg>